<svg xmlns="http://www.w3.org/2000/svg" viewBox="0 0 32 32">
  <defs>
    <linearGradient id="bg" x1="0%" y1="0%" x2="100%" y2="100%">
      <stop offset="0%" style="stop-color:#1e3a8a"/>
      <stop offset="100%" style="stop-color:#2563eb"/>
    </linearGradient>
  </defs>
  <rect width="32" height="32" rx="7" fill="url(#bg)"/>
  <path d="M6 9 C6 7 7 6 9 6 L23 6 C25 6 26 7 26 9 L26 20 C26 22 25 23 23 23 L17 23 L13 27 L13 23 L9 23 C7 23 6 22 6 20 Z" fill="white" opacity="0.97"/>
  <rect x="10" y="11" width="12" height="2.2" rx="1.1" fill="#1e40af" opacity="0.5"/>
  <rect x="10" y="15" width="9" height="2.2" rx="1.1" fill="#1e40af" opacity="0.44"/>
  <rect x="10" y="19" width="10.5" height="2.2" rx="1.1" fill="#1e40af" opacity="0.36"/>
</svg>
