<svg xmlns="http://www.w3.org/2000/svg" viewBox="0 0 192 192" width="192" height="192">
  <defs>
    <linearGradient id="bg" x1="0%" y1="0%" x2="100%" y2="100%">
      <stop offset="0%" style="stop-color:#1e3a8a"/>
      <stop offset="50%" style="stop-color:#1d4ed8"/>
      <stop offset="100%" style="stop-color:#2563eb"/>
    </linearGradient>
    <linearGradient id="glow" x1="0%" y1="0%" x2="0%" y2="100%">
      <stop offset="0%" style="stop-color:#3b82f6;stop-opacity:0.3"/>
      <stop offset="100%" style="stop-color:#1d4ed8;stop-opacity:0"/>
    </linearGradient>
  </defs>
  <!-- Background rounded square -->
  <rect width="192" height="192" rx="40" fill="url(#bg)"/>
  <!-- Subtle glow overlay -->
  <rect width="192" height="96" rx="40" fill="url(#glow)"/>
  <!-- Speech bubble main body -->
  <path d="M36 52 C36 41 44 34 54 34 L138 34 C148 34 156 41 156 52 L156 112 C156 122 148 130 138 130 L100 130 L76 154 L76 130 L54 130 C44 130 36 122 36 112 Z" fill="white" opacity="0.97"/>
  <!-- Text lines inside bubble -->
  <rect x="58" y="60" width="76" height="10" rx="5" fill="#1e40af" opacity="0.5"/>
  <rect x="58" y="80" width="58" height="10" rx="5" fill="#1e40af" opacity="0.45"/>
  <rect x="58" y="100" width="68" height="10" rx="5" fill="#1e40af" opacity="0.35"/>
</svg>
